<?xml version="1.0" standalone="no"?>
<!DOCTYPE svg PUBLIC "-//W3C//DTD SVG 20010904//EN"
 "http://www.w3.org/TR/2001/REC-SVG-20010904/DTD/svg10.dtd">
<svg version="1.0" xmlns="http://www.w3.org/2000/svg"
 width="700.000000pt" height="700.000000pt" viewBox="0 0 700.000000 700.000000"
 preserveAspectRatio="xMidYMid meet">
<metadata>
Created by potrace 1.11, written by Peter Selinger 2001-2013
</metadata>
<g transform="translate(0.000000,700.000000) scale(0.100000,-0.100000)"
fill="#000000" stroke="none">
<path d="M1639 5456 c-2 -2 -25 -6 -50 -9 -67 -8 -157 -33 -239 -67 -298 -121
-530 -385 -618 -706 l-27 -99 0 -1055 c0 -580 3 -1071 7 -1090 15 -85 21 -108
40 -165 57 -167 134 -292 257 -416 138 -138 296 -228 496 -280 l90 -24 1060 0
c1001 0 1064 1 1140 19 312 73 575 277 708 548 54 109 65 137 89 229 22 84 22
84 25 1119 1 569 -2 1060 -7 1090 -16 105 -21 125 -51 210 -105 298 -344 537
-639 640 -161 56 -101 54 -1231 57 -575 2 -1047 2 -1050 -1z"/>
<path d="M5455 4885 c-227 -49 -418 -210 -504 -427 -16 -40 -34 -98 -40 -128
-7 -36 -9 -333 -8 -855 2 -713 4 -806 19 -855 77 -256 257 -432 510 -499 89
-23 261 -22 352 3 158 44 309 154 402 293 33 50 85 167 100 228 5 17 9 392 11
835 3 786 2 807 -18 885 -22 84 -74 197 -116 253 -89 118 -237 219 -379 258
-77 21 -252 26 -329 9z"/>
</g>
</svg>
