<?xml version="1.0" encoding="UTF-8" standalone="no"?>
<!DOCTYPE svg PUBLIC "-//W3C//DTD SVG 20010904//EN" "http://www.w3.org/TR/2001/REC-SVG-20010904/DTD/svg10.dtd">

<svg xmlns="http://www.w3.org/2000/svg" viewBox="0 0 64 64">
	<defs>
		<linearGradient id="gradient" x1="0" y1="32" x2="64" y2="0" gradientUnits="userSpaceOnUse">
				<stop offset="0" stop-color="#6549D5" />
				<stop offset="0.25" stop-color="#DB3C9C" />
				<stop offset="0.5" stop-color="#F65056" />
				<stop offset="0.75" stop-color="#FB5343" />
				<stop offset="1" stop-color="#FD7B42" />
		</linearGradient>
	</defs>
  <path fill="url(#gradient)" d="M 32.64,14.08 C 32.64,14.08 16.00,14.08 16.00,14.08 10.70,14.08 6.40,18.38 6.40,23.68 6.40,23.68 6.40,40.32 6.40,40.32 6.40,45.62 10.70,49.92 16.00,49.92 16.00,49.92 32.64,49.92 32.64,49.92 37.94,49.92 42.24,45.62 42.24,40.32 42.24,40.32 42.24,23.68 42.24,23.68 42.24,18.38 37.94,14.08 32.64,14.08 Z M 57.60,25.60 C 57.60,22.07 54.73,19.20 51.20,19.20 47.67,19.20 44.80,22.07 44.80,25.60 44.80,25.60 44.80,38.40 44.80,38.40 44.80,41.93 47.67,44.80 51.20,44.80 54.73,44.80 57.60,41.93 57.60,38.40 57.60,38.40 57.60,25.60 57.60,25.60 Z" />
</svg>
