<?xml version="1.0" standalone="no"?>
<!DOCTYPE svg PUBLIC "-//W3C//DTD SVG 20010904//EN"
 "http://www.w3.org/TR/2001/REC-SVG-20010904/DTD/svg10.dtd">
<svg version="1.0" xmlns="http://www.w3.org/2000/svg"
 width="700.000000pt" height="700.000000pt" viewBox="0 0 700.000000 700.000000"
 preserveAspectRatio="xMidYMid meet">
<metadata>
Created by potrace 1.14, written by Peter Selinger 2001-2017
</metadata>
<g transform="translate(0.000000,700.000000) scale(0.100000,-0.100000)"
fill="#000000" stroke="none">
<path d="M1570 5444 c-170 -31 -332 -103 -469 -209 -60 -45 -179 -175 -222
-240 -84 -127 -148 -294 -169 -435 -5 -38 -8 -497 -6 -1100 2 -1107 -1 -1028
50 -1201 25 -84 94 -214 159 -301 145 -192 354 -329 598 -389 l94 -24 1060 0
c1057 0 1060 0 1145 22 194 49 362 144 500 283 128 127 205 254 263 430 42
126 42 132 42 1230 l0 1055 -23 85 c-54 204 -137 355 -272 491 -123 125 -244
203 -391 255 -170 60 -103 57 -1239 60 -851 2 -1059 -1 -1120 -12z"/>
<path d="M5455 4885 c-128 -28 -230 -83 -346 -187 -39 -35 -117 -145 -144
-203 -63 -139 -59 -83 -62 -965 -3 -877 -3 -874 54 -1004 82 -188 234 -325
435 -393 73 -24 98 -28 203 -28 138 1 209 16 318 71 122 61 236 169 299 284
21 39 55 121 59 142 1 4 8 33 15 65 11 46 14 216 14 838 -1 750 -1 783 -21
859 -54 211 -181 369 -375 465 -127 63 -310 86 -449 56z"/>
</g>
</svg>
